<mxfile host="app.diagrams.net" modified="2023-09-28T06:21:02.008Z" agent="Mozilla/5.0 (Windows NT 10.0; Win64; x64) AppleWebKit/537.36 (KHTML, like Gecko) Chrome/116.0.0.0 Safari/537.36" version="21.8.2" etag="6ckkx-oUV881vaWAabPg" type="github">
  <diagram name="第 1 页" id="LeVe_KQmocMJwJVXhjcn">
    <mxGraphModel>
      <root>
        <mxCell id="0" />
        <mxCell id="1" parent="0" />
      </root>
    </mxGraphModel>
  </diagram>
</mxfile>
